<?xml version="1.0" encoding="UTF-8"?>
<svg id="Layer_2" data-name="Layer 2" xmlns="http://www.w3.org/2000/svg" viewBox="0 0 400 400">
  <g id="Layer_1-2" data-name="Layer 1">
    <g>
      <path d="m388.76,22.85h-81.94V2.46c0-1.36-1.17-2.46-2.6-2.46h-18.68c-1.44,0-2.6,1.1-2.6,2.46v20.39h-70.99V2.46c0-1.36-1.17-2.46-2.6-2.46h-18.68c-1.44,0-2.6,1.1-2.6,2.46v20.39h-70.99V2.46c0-1.36-1.17-2.46-2.6-2.46h-18.68c-1.44,0-2.6,1.1-2.6,2.46v20.39H11.24c-6.2,0-11.24,4.75-11.24,10.6v355.96c0,5.84,5.04,10.6,11.24,10.6h377.52c6.2,0,11.24-4.75,11.24-10.6V33.44c0-5.84-5.04-10.6-11.24-10.6ZM93.17,40.87v20.39c0,1.36,1.17,2.46,2.6,2.46h18.68c1.44,0,2.6-1.1,2.6-2.46v-20.39h70.99v20.39c0,1.36,1.17,2.46,2.6,2.46h18.68c1.44,0,2.6-1.1,2.6-2.46v-20.39h70.99v20.39c0,1.36,1.17,2.46,2.6,2.46h18.68c1.44,0,2.6-1.1,2.6-2.46v-20.39h74.06v51.87H19.11v-51.87h74.06ZM19.11,381.98V110.76h361.77v271.21H19.11Z"/>
      <path d="m117.35,139.74h-59.93c-2.66,0-4.82,2.03-4.82,4.54v56.5c0,2.51,2.16,4.54,4.82,4.54h59.93c2.66,0,4.82-2.03,4.82-4.54v-56.5c0-2.51-2.16-4.54-4.82-4.54Z"/>
      <path d="m229.96,139.74h-59.93c-2.66,0-4.82,2.03-4.82,4.54v56.5c0,2.51,2.16,4.54,4.82,4.54h59.93c2.66,0,4.82-2.03,4.82-4.54v-56.5c0-2.51-2.16-4.54-4.82-4.54Z"/>
      <path d="m342.58,139.74h-59.93c-2.66,0-4.82,2.03-4.82,4.54v56.5c0,2.51,2.16,4.54,4.82,4.54h59.93c2.66,0,4.82-2.03,4.82-4.54v-56.5c0-2.51-2.16-4.54-4.82-4.54Z"/>
    </g>
  </g>
</svg>