<?xml version="1.0" encoding="UTF-8"?>
<svg id="Layer_2" data-name="Layer 2" xmlns="http://www.w3.org/2000/svg" viewBox="0 0 481.43 481.43">
  <defs>
    <style>
      .cls-1 {
        fill: #fff;
        fill-rule: evenodd;
      }
    </style>
  </defs>
  <g id="Layer_1-2" data-name="Layer 1">
    <rect width="481.43" height="481.43" rx="78.5" ry="78.5"/>
    <g id="Layer_1-2" data-name="Layer 1-2">
      <g>
        <path class="cls-1" d="m240.71,309.34c14.4,30.94,45.75,52.39,82.12,52.39,12.87,0,25.11-2.68,36.18-7.52-2.14.17-4.31.26-6.49.26-31.9,0-59.5-18.37-72.81-45.12h-38.99s0-.01,0-.01Z"/>
        <path class="cls-1" d="m128.91,354.47c-2.19,0-4.36-.09-6.49-.26,11.08,4.84,23.32,7.52,36.18,7.52,36.38,0,67.73-21.45,82.12-52.39h-38.99c-13.31,26.75-40.92,45.13-72.81,45.13h0Z"/>
        <path class="cls-1" d="m175.56,382.52c2.78.81,5.62,1.44,8.54,1.88,1.4.21,2.81.37,4.23.49,1.75.15,3.52.22,5.29.22,2.39,0,4.75-.13,7.07-.38,15.78-1.74,29.84-9.21,40.03-20.3,10.2,11.09,24.25,18.56,40.04,20.3,2.32.25,4.67.38,7.05.38,1.78,0,3.55-.07,5.29-.22,1.43-.12,2.85-.28,4.24-.49,2.91-.44,5.76-1.06,8.53-1.88,2.75-.81,5.42-1.8,8.01-2.95-1.07-.1-2.14-.21-3.22-.35-31.38-3.96-56.97-23.55-69.95-49.97-12.97,26.42-38.56,46.01-69.95,49.97-1.07.14-2.14.25-3.21.35,2.58,1.16,5.25,2.14,7.99,2.95h0Z"/>
        <path class="cls-1" d="m240.71,379.45c-10.02,11.03-23.84,18.48-39.35,20.21-2.28.25-4.6.39-6.94.39-1.07,0-2.13-.03-3.18-.09,4.39,1.83,8.99,3.11,13.74,3.75,2.37.33,4.79.5,7.24.5,1.83,0,3.64-.1,5.42-.27,1.47-.16,2.92-.36,4.36-.63,2.99-.55,5.91-1.35,8.75-2.39,7.36-2.68,14.18-6.91,20.21-12.37-3.74-2.66-7.18-5.71-10.26-9.09h0Z"/>
        <path class="cls-1" d="m228.48,163.19l29.07,23.44-23.43,29.06-29.07-23.43,23.43-29.07Z"/>
        <path class="cls-1" d="m249.59,112.53l-23.43,29.07-29.07-23.43,23.43-29.06,29.07,23.43h0Z"/>
        <path class="cls-1" d="m213,266.35l23.43-29.07,29.07,23.43-23.43,29.07-29.07-23.43h0Z"/>
        <path class="cls-1" d="m164.03,159.2l23.43-29.07,29.06,23.43-23.43,29.08-29.06-23.44h0Z"/>
        <path class="cls-1" d="m310.53,229.33l17.19,13.86c-4.57,12.38-10.72,23.64-18.1,33.36l-22.51-18.15,23.43-29.07h0Z"/>
        <path class="cls-1" d="m246.07,225.34l23.43-29.08,29.07,23.43-23.43,29.07-29.08-23.43h0Z"/>
        <path class="cls-1" d="m331.64,178.67l-23.43,29.07-29.06-23.44,23.43-29.07,29.07,23.43h0Z"/>
        <path class="cls-1" d="m259.22,100.57l-28.57-23.03c3.05-.22,6.18-.32,9.4-.32,12.66,0,24.03,1.65,34.13,4.81l-14.94,18.55h0Z"/>
        <path class="cls-1" d="m332.54,227.35l-12.38-9.98,16.64-20.63c-.42,10.61-1.88,20.87-4.26,30.61Z"/>
        <path class="cls-1" d="m238.11,151.25l23.43-29.08,29.07,23.43-23.43,29.07-29.07-23.43h0Z"/>
        <path class="cls-1" d="m175.5,120.49l-23.43,29.07-3.75-3.03c3.51-13.39,8.83-25.16,16.03-35.04l11.14,8.98h0Z"/>
        <path class="cls-1" d="m144.52,211.16c-.88-6.72-1.35-13.62-1.35-20.66,0-1.87.02-3.71.07-5.52l11.14-13.83,29.07,23.43-23.43,29.08-15.51-12.5h0Z"/>
        <path class="cls-1" d="m185.14,108.54l-10.61-8.56c8.8-8.19,19.5-14.36,32.16-18.19l-21.55,26.74h0Z"/>
        <path class="cls-1" d="m316.84,113.06l-16.59,20.59-29.08-23.43,17.77-22.05c11.36,6.03,20.63,14.44,27.9,24.89Z"/>
        <path class="cls-1" d="m162.35,245.24l29.06,23.43-13.47,16.72c-8.6-9.19-15.94-20.24-21.63-32.67l6.03-7.47h0Z"/>
        <path class="cls-1" d="m312.21,143.28l12.79-15.87c4.65,10.11,7.92,21.54,9.85,34.12l-22.63-18.25h0Z"/>
        <path class="cls-1" d="m195.41,204.22l29.07,23.43-23.43,29.07-29.07-23.43,23.43-29.07h0Z"/>
        <path class="cls-1" d="m299.5,288.11c-3.08,3.07-6.31,5.91-9.69,8.49h-33.52l21.17-26.25,22.04,17.76h0Z"/>
        <path class="cls-1" d="m189.26,295.81l14.1-17.5,22.69,18.29h-35.78c-.33-.26-.68-.52-1.01-.79h0Z"/>
      </g>
    </g>
  </g>
</svg>