<?xml version="1.0" encoding="UTF-8"?>
<svg id="Layer_2" data-name="Layer 2" xmlns="http://www.w3.org/2000/svg" viewBox="0 0 427 590.11">
  <defs>
    <style>
      .cls-1 {
        fill: #fff;
        fill-rule: evenodd;
      }
    </style>
  </defs>
  <g id="Layer_1-2" data-name="Layer 1">
    <g>
      <path class="cls-1" d="m213.49,418.92c25.98,55.84,82.57,94.56,148.21,94.56,23.22,0,45.31-4.84,65.29-13.58-3.86.3-7.77.47-11.72.47-57.57,0-107.39-33.16-131.41-81.43l-70.37-.02Z"/>
      <path class="cls-1" d="m11.72,500.37c-3.95,0-7.86-.17-11.72-.47,20,8.74,42.08,13.58,65.29,13.58,65.65,0,122.24-38.72,148.2-94.56h-70.35s-.01.02-.01.02c-24.03,48.26-73.85,81.43-131.41,81.43Z"/>
      <path class="cls-1" d="m95.9,550.99c5.01,1.46,10.15,2.59,15.42,3.39,2.52.37,5.07.66,7.64.88,3.15.27,6.35.39,9.55.39,4.32,0,8.57-.23,12.76-.69,28.48-3.14,53.85-16.62,72.25-36.63,18.4,20.01,43.76,33.5,72.27,36.63,4.18.46,8.42.69,12.73.69,3.22,0,6.41-.12,9.55-.39,2.58-.22,5.14-.51,7.66-.88,5.26-.8,10.4-1.92,15.4-3.39,4.97-1.47,9.79-3.25,14.45-5.33-1.93-.18-3.87-.37-5.82-.63-56.64-7.14-102.81-42.51-126.24-90.19-23.41,47.68-69.59,83.04-126.25,90.19-1.93.25-3.86.45-5.79.63,4.66,2.09,9.47,3.86,14.42,5.33Z"/>
      <path class="cls-1" d="m213.49,545.44c-18.09,19.91-43.02,33.36-71.02,36.47-4.11.46-8.3.7-12.53.7-1.94,0-3.85-.06-5.74-.16,7.92,3.31,16.22,5.61,24.8,6.76,4.28.59,8.64.91,13.07.91,3.3,0,6.57-.18,9.79-.49,2.66-.28,5.27-.65,7.87-1.13,5.39-.99,10.67-2.44,15.8-4.31,13.29-4.83,25.59-12.47,36.48-22.33-6.75-4.8-12.95-10.31-18.51-16.41Z"/>
      <path class="cls-1" d="m191.41,155.15l52.46,42.3-42.29,52.45-52.46-42.29,42.29-52.46Z"/>
      <path class="cls-1" d="m229.52,63.72l-42.29,52.46-52.47-42.29,42.29-52.45,52.47,42.28Z"/>
      <path class="cls-1" d="m163.48,341.33l42.29-52.46,52.46,42.29-42.28,52.46-52.47-42.29Z"/>
      <path class="cls-1" d="m75.09,147.94l42.29-52.46,52.45,42.29-42.29,52.48-52.45-42.3Z"/>
      <path class="cls-1" d="m339.49,274.51l31.02,25.01c-8.25,22.35-19.35,42.67-32.67,60.21l-40.63-32.75,42.29-52.46Z"/>
      <path class="cls-1" d="m223.16,267.31l42.29-52.48,52.47,42.29-42.29,52.47-52.48-42.29Z"/>
      <path class="cls-1" d="m377.59,183.08l-42.29,52.47-52.45-42.3,42.28-52.46,52.46,42.29Z"/>
      <path class="cls-1" d="m246.9,42.14L195.33.58c5.5-.39,11.15-.58,16.96-.58,22.85,0,43.36,2.98,61.59,8.68l-26.97,33.47Z"/>
      <path class="cls-1" d="m379.22,270.94l-22.34-18.01,30.03-37.24c-.75,19.15-3.39,37.67-7.69,55.25Z"/>
      <path class="cls-1" d="m208.8,133.59l42.29-52.48,52.46,42.29-42.29,52.46-52.46-42.28Z"/>
      <path class="cls-1" d="m95.79,78.08l-42.28,52.47-6.76-5.46c6.34-24.16,15.94-45.41,28.93-63.23l20.11,16.21Z"/>
      <path class="cls-1" d="m39.89,241.72c-1.59-12.13-2.43-24.58-2.43-37.28,0-3.37.04-6.69.12-9.97l20.11-24.96,52.47,42.29-42.29,52.48-27.99-22.56Z"/>
      <path class="cls-1" d="m113.19,56.52l-19.14-15.44c15.88-14.78,35.19-25.91,58.04-32.83l-38.9,48.26Z"/>
      <path class="cls-1" d="m350.89,64.67l-29.94,37.16-52.48-42.29,32.07-39.79c20.5,10.89,37.23,26.06,50.35,44.92Z"/>
      <path class="cls-1" d="m72.06,303.23l52.45,42.29-24.31,30.17c-15.52-16.58-28.77-36.52-39.03-58.97l10.89-13.49Z"/>
      <path class="cls-1" d="m342.52,119.21l23.09-28.64c8.39,18.25,14.3,38.88,17.77,61.57l-40.85-32.93Z"/>
      <path class="cls-1" d="m131.73,229.19l52.47,42.29-42.29,52.46-52.47-42.29,42.29-52.46Z"/>
      <path class="cls-1" d="m319.59,380.6c-5.55,5.54-11.39,10.66-17.48,15.32h-60.49l38.2-47.37,39.77,32.05Z"/>
      <path class="cls-1" d="m120.64,394.5l25.45-31.58,40.95,33.01h-64.58c-.6-.47-1.22-.94-1.82-1.42Z"/>
    </g>
  </g>
</svg>